<svg xmlns="http://www.w3.org/2000/svg" width="24" height="24"><g><title>background</title><rect id="canvas_background" width="120.537" height="132.724" x="-1" y="-1" fill="none"/></g><g><title>Layer 1</title><g id="svg_1" stroke="null"><path id="svg_2" fill="#2980b9" stroke="null" d="m4.879852,6.997402c-0.786492,0 -1.42403,0.643191 -1.42403,1.429314l0,10.005196c0,0.786123 0.637559,1.429314 1.42403,1.429314l14.240295,0c0.786776,0 1.42403,-0.643191 1.42403,-1.429314l0,-10.005196c0,-0.786123 -0.637253,-1.429314 -1.42403,-1.429314l-14.240295,0z"/><path id="svg_3" fill="#2980b9" stroke="null" d="m5.591866,4.138774c-0.786492,0 -1.42403,0.643191 -1.42403,1.429314l0,10.005196c0,0.786123 0.637538,1.429314 1.42403,1.429314l7.832162,0l3.560074,0l1.42403,0c0.786776,0 1.42403,-0.643191 1.42403,-1.429314l0,-6.431912l0,-2.143971c0,-0.786123 -0.637253,-1.429314 -1.42403,-1.429314l-1.42403,0l-3.560074,0l-0.712015,0l-2.136044,-1.429314l-4.984103,0z"/><path id="svg_4" fill="#bdc3c7" stroke="null" d="m19.832162,13.429313l0,-5.717255c0,-0.786123 -0.637253,-1.429314 -1.42403,-1.429314l-7.832162,0l-3.560074,0l-1.42403,0c-0.786492,0 -1.42403,0.643191 -1.42403,1.429314l0,5.717255l15.664325,0z"/><path id="svg_5" fill="#3498db" stroke="null" d="m4.879852,6.997402c-0.786492,0 -1.42403,0.643191 -1.42403,1.429314l0,4.287941l0,0.714657l0,4.287941c0,0.786123 0.637559,1.429314 1.42403,1.429314l14.240295,0c0.786776,0 1.42403,-0.643191 1.42403,-1.429314l0,-4.287941l0,-0.714657l0,-4.287941c0,-0.786123 -0.637253,-1.429314 -1.42403,-1.429314l-14.240295,0z"/></g><path id="svg_6" fill="#0f0" stroke="#333" d="m13.360137,15.319633l2.766223,0l0,-2.661442l2.83762,0l0,2.661442l2.766223,0l0,2.730134l-2.766223,0l0,2.661442l-2.83762,0l0,-2.661442l-2.766223,0l0,-2.730134z"/></g></svg>