<svg xmlns="http://www.w3.org/2000/svg" xmlns:svg="http://www.w3.org/2000/svg" id="svg5692" width="32" height="32" version="1.1"><title id="title2829">GIS icon theme 0.2</title><metadata id="metadata5697"/><g id="layer2" style="display:inline"><path style="color:#000;fill:none;stroke:#415a75;stroke-width:1.78710628;stroke-linecap:round;stroke-linejoin:round;stroke-miterlimit:4;stroke-opacity:1;stroke-dasharray:none;stroke-dashoffset:0;marker:none;visibility:visible;display:inline;overflow:visible;enable-background:accumulate" id="path2960" d="M 3.1572212,3.1572206 11.707585,23.749318 21.110969,3.3492624 28.84278,3.3200046"/><path style="color:#000;fill:#eeeeec;fill-opacity:1;fill-rule:evenodd;stroke:#415a75;stroke-width:.78947365;stroke-linecap:round;stroke-linejoin:round;stroke-miterlimit:4;stroke-opacity:1;stroke-dasharray:none;stroke-dashoffset:0;marker:none;visibility:visible;display:inline;overflow:visible;enable-background:accumulate" id="path2958" d="m 4.5,12.5 a 1,1 0 1 1 -2,0 1,1 0 1 1 2,0 z" transform="matrix(2.263668,0,0,2.263668,-4.7656167,-25.138629)"/><path style="color:#000;fill:#eeeeec;fill-opacity:1;fill-rule:evenodd;stroke:#415a75;stroke-width:1.05263162;stroke-linecap:round;stroke-linejoin:round;stroke-miterlimit:4;stroke-opacity:1;stroke-dasharray:none;stroke-dashoffset:0;marker:none;visibility:visible;display:inline;overflow:visible;enable-background:accumulate" id="path2958-0" d="m 4.5,12.5 a 1,1 0 1 1 -2,0 1,1 0 1 1 2,0 z" transform="matrix(2.263668,0,0,2.263668,3.8127783,-5.6260389)"/><path style="color:#000;fill:#eeeeec;fill-opacity:1;fill-rule:evenodd;stroke:#415a75;stroke-width:.78947365;stroke-linecap:round;stroke-linejoin:round;stroke-miterlimit:4;stroke-opacity:1;stroke-dasharray:none;stroke-dashoffset:0;marker:none;visibility:visible;display:inline;overflow:visible;enable-background:accumulate" id="path2958-9" d="m 4.5,12.5 a 1,1 0 1 1 -2,0 1,1 0 1 1 2,0 z" transform="matrix(2.263668,0,0,2.263668,12.949214,-24.994533)"/><path style="color:#000;fill:#eeeeec;fill-opacity:1;fill-rule:evenodd;stroke:#415a75;stroke-width:.78947365;stroke-linecap:round;stroke-linejoin:round;stroke-miterlimit:4;stroke-opacity:1;stroke-dasharray:none;stroke-dashoffset:0;marker:none;visibility:visible;display:inline;overflow:visible;enable-background:accumulate" id="path2958-6" d="m 4.5,12.5 a 1,1 0 1 1 -2,0 1,1 0 1 1 2,0 z" transform="matrix(2.263668,0,0,2.263668,20.919941,-24.975845)"/><g style="display:inline" id="g3772"><rect id="rect3563" width="13" height="13" x="19" y="19" rx="2.615" ry="2.615" style="fill:#5a8c5a;fill-opacity:1;stroke:#555753;stroke-width:0;stroke-linejoin:round;stroke-miterlimit:4;stroke-opacity:1;stroke-dasharray:none;display:inline"/><path style="fill:#fff;fill-opacity:1;fill-rule:evenodd;stroke:#fff;stroke-width:2.5999999;stroke-linecap:round;stroke-linejoin:round;stroke-miterlimit:4;stroke-opacity:1;stroke-dasharray:none;stroke-dashoffset:0;marker:none;visibility:visible;display:inline;overflow:visible;enable-background:accumulate" id="path3807" d="m 21.6,25.499999 7.8,0"/><path id="path3809" d="M 25.5,29.399999 25.5,21.6" style="fill:#fff;fill-opacity:1;fill-rule:evenodd;stroke:#fff;stroke-width:2.5999999;stroke-linecap:round;stroke-linejoin:round;stroke-miterlimit:4;stroke-opacity:1;stroke-dasharray:none;stroke-dashoffset:0;marker:none;visibility:visible;display:inline;overflow:visible;enable-background:accumulate"/><path id="path6992" d="m 20.3,25.499999 10.4,0 c 0,0 0,0 0,-2.6 C 30.7,20.3 30.05,20.3 25.5,20.3 c -4.55,0 -5.2,0 -5.2,2.599999 0,2.6 0,2.6 0,2.6 z" style="opacity:.3;fill:#fcffff;fill-rule:evenodd;stroke:none;display:inline;enable-background:new"/></g></g></svg>