<svg xmlns="http://www.w3.org/2000/svg" xmlns:svg="http://www.w3.org/2000/svg" xmlns:xlink="http://www.w3.org/1999/xlink" id="svg2" width="128" height="128" version="1.1"><defs id="defs4"><radialGradient id="radialGradient3262" cx="25.456" cy="39.161" r="19.622" fx="25.456" fy="39.161" gradientTransform="matrix(1,0,0,0.315315,0,26.81305)" gradientUnits="userSpaceOnUse" xlink:href="#linearGradient3256"/><linearGradient id="linearGradient3256"><stop id="stop3258" offset="0" style="stop-color:#000;stop-opacity:1"/><stop id="stop3260" offset="1" style="stop-color:#000;stop-opacity:0"/></linearGradient><linearGradient id="linearGradient3281" x1="14.463" x2="34.534" y1="12.285" y2="39.685" gradientTransform="matrix(1.241935,0,0,1.241935,-5.027508,-7.208988)" gradientUnits="userSpaceOnUse" xlink:href="#linearGradient3264"/><linearGradient id="linearGradient3264"><stop id="stop3266" offset="0" style="stop-color:#c9c9c9;stop-opacity:1"/><stop style="stop-color:#f8f8f8;stop-opacity:1" id="stop3276" offset=".25"/><stop style="stop-color:#e2e2e2;stop-opacity:1" id="stop3272" offset=".5"/><stop id="stop3274" offset=".75" style="stop-color:#b0b0b0;stop-opacity:1"/><stop id="stop3268" offset="1" style="stop-color:#c9c9c9;stop-opacity:1"/></linearGradient><linearGradient id="linearGradient1340" x1="8.821" x2="12.499" y1="12.538" y2="24.238" gradientTransform="matrix(11.89675,0,0,8.652534,-56.333444,831.98911)" gradientUnits="userSpaceOnUse" xlink:href="#linearGradient2180"/><linearGradient id="linearGradient2180"><stop style="stop-color:#fff;stop-opacity:1" id="stop2182" offset="0"/><stop style="stop-color:#fff;stop-opacity:0" id="stop2184" offset="1"/></linearGradient><radialGradient id="radialGradient2229" cx="23.994" cy="32.267" r="19.089" fx="23.994" fy="32.267" gradientTransform="matrix(1.768625,0,0,1.387102,-6.9519948,-38.185262)" gradientUnits="userSpaceOnUse" xlink:href="#linearGradient2222"/><linearGradient id="linearGradient2222"><stop style="stop-color:#5187d6;stop-opacity:1" id="stop2224" offset="0"/><stop style="stop-color:#1e4580;stop-opacity:1" id="stop2227" offset="1"/></linearGradient><linearGradient id="linearGradient3888" x1="14.463" x2="34.534" y1="12.285" y2="39.685" gradientTransform="matrix(2.6832199,0,0,2.6832199,113.9505,996.27808)" gradientUnits="userSpaceOnUse" xlink:href="#linearGradient3264"/><radialGradient id="radialGradient3891" cx="25.456" cy="39.161" r="19.622" fx="25.456" fy="39.161" gradientTransform="matrix(1,0,0,0.315315,0,26.81305)" gradientUnits="userSpaceOnUse" xlink:href="#linearGradient3256"/><linearGradient id="linearGradient3899" x1="-109" x2="-4" y1="1079.362" y2="1079.362" gradientTransform="translate(-2.0082528,0)" gradientUnits="userSpaceOnUse" xlink:href="#linearGradient3264"/><linearGradient id="linearGradient3907" x1="-92" x2="-21" y1="155" y2="155" gradientTransform="translate(-2.0082514,924.36218)" gradientUnits="userSpaceOnUse" xlink:href="#linearGradient3264"/><linearGradient id="linearGradient3899-7" x1="-109" x2="-4" y1="1079.362" y2="1079.362" gradientUnits="userSpaceOnUse" xlink:href="#linearGradient3264-7"/><linearGradient id="linearGradient3264-7"><stop id="stop3266-1" offset="0" style="stop-color:#c9c9c9;stop-opacity:1"/><stop style="stop-color:#f8f8f8;stop-opacity:1" id="stop3276-2" offset=".25"/><stop style="stop-color:#e2e2e2;stop-opacity:1" id="stop3272-6" offset=".5"/><stop id="stop3274-0" offset=".75" style="stop-color:#b0b0b0;stop-opacity:1"/><stop id="stop3268-4" offset="1" style="stop-color:#c9c9c9;stop-opacity:1"/></linearGradient><radialGradient id="radialGradient3958" cx="25.456" cy="39.161" r="19.622" fx="25.456" fy="39.161" gradientTransform="matrix(1,0,0,0.315315,0,26.81305)" gradientUnits="userSpaceOnUse" xlink:href="#linearGradient3256"/><linearGradient id="linearGradient3960" x1="-92" x2="-21" y1="155" y2="155" gradientTransform="translate(-2.0082514,924.36218)" gradientUnits="userSpaceOnUse" xlink:href="#linearGradient3264"/><linearGradient id="linearGradient3962" x1="-109" x2="-4" y1="1079.362" y2="1079.362" gradientTransform="translate(-2.0082528,0)" gradientUnits="userSpaceOnUse" xlink:href="#linearGradient3264"/><clipPath id="clipPath532" clipPathUnits="userSpaceOnUse"><path id="path534" d="M 0,96 96,96 96,0 0,0 0,96 z"/></clipPath><clipPath id="clipPath544" clipPathUnits="userSpaceOnUse"><path id="path546" d="M 0,96 96,96 96,0 0,0 0,96 z"/></clipPath><clipPath id="clipPath560" clipPathUnits="userSpaceOnUse"><path id="path562" d="M 0,96 96,96 96,0 0,0 0,96 z"/></clipPath><linearGradient id="linearGradient2421" x1="64.001" x2="64.001" y1="113" y2="29" gradientTransform="matrix(0.6071428,0,0,0.6190476,-81.141062,991.78521)" gradientUnits="userSpaceOnUse" xlink:href="#XMLID_2_"/><linearGradient id="XMLID_2_" x1="64.001" x2="64.001" y1="113" y2="29" gradientUnits="userSpaceOnUse"><stop id="stop20" offset="0" style="stop-color:#00bf00;stop-opacity:1"/><stop id="stop22" offset="1" style="stop-color:#009300;stop-opacity:1"/></linearGradient><linearGradient id="linearGradient2716" x1="75.801" x2="67.801" y1="70.184" y2="79.312" gradientTransform="matrix(-0.9852532,0,0,-1.0227838,-39.791884,1113.0431)" gradientUnits="userSpaceOnUse" xlink:href="#linearGradient4073"/><linearGradient id="linearGradient4073"><stop style="stop-color:black;stop-opacity:1" id="stop4075" offset="0"/><stop style="stop-color:black;stop-opacity:0" id="stop4077" offset="1"/></linearGradient><linearGradient id="linearGradient2714" x1="75.801" x2="67.801" y1="70.184" y2="79.312" gradientTransform="matrix(-0.9852532,0,0,-1.0227838,-5.8018893,1076.2744)" gradientUnits="userSpaceOnUse" xlink:href="#linearGradient4073"/><linearGradient id="linearGradient2712" x1="30.56" x2="41.597" y1="66.608" y2="67.292" gradientTransform="matrix(-0.69668042,-0.72321656,0.69667845,-0.72321861,-57.479632,1078.8761)" gradientUnits="userSpaceOnUse" xlink:href="#linearGradient3036"/><linearGradient id="linearGradient3036"><stop style="stop-color:#a1a1a1;stop-opacity:1" id="stop3038" offset="0"/><stop style="stop-color:#a1a1a1;stop-opacity:0" id="stop3040" offset="1"/></linearGradient><linearGradient id="linearGradient2710" x1="90.793" x2="73.121" y1="75.343" y2="88.824" gradientTransform="matrix(0.9852532,0,0,1.0227838,-130.9788,939.15935)" gradientUnits="userSpaceOnUse" xlink:href="#linearGradient4073"/><linearGradient id="linearGradient2708" x1="25.886" x2="35.311" y1="67.406" y2="67.406" gradientTransform="matrix(-0.69668042,-0.72321656,0.69667845,-0.72321861,-57.315972,1079.1336)" gradientUnits="userSpaceOnUse" xlink:href="#linearGradient3036"/><linearGradient id="linearGradient2706" x1="57.673" x2="57.673" y1="96.848" y2="86.429" gradientTransform="matrix(-0.69668042,-0.72321656,0.69667845,-0.72321861,-57.315972,1079.1336)" gradientUnits="userSpaceOnUse" xlink:href="#linearGradient2426"/><linearGradient id="linearGradient2426"><stop id="stop2428" offset="0" style="stop-color:#fff;stop-opacity:1"/><stop id="stop2430" offset="1" style="stop-color:#fff;stop-opacity:0"/></linearGradient><linearGradient id="linearGradient2694" x1="50.226" x2="50.226" y1="55.274" y2="50.109" gradientUnits="userSpaceOnUse" xlink:href="#linearGradient2945"/><linearGradient id="linearGradient2945"><stop style="stop-color:white;stop-opacity:.66425991" id="stop2947" offset="0"/><stop id="stop2951" offset=".258" style="stop-color:white;stop-opacity:1"/><stop style="stop-color:#fff;stop-opacity:0" id="stop2949" offset="1"/></linearGradient><linearGradient id="linearGradient2696" x1="26.218" x2="26.218" y1="47.294" y2="51.283" gradientUnits="userSpaceOnUse" xlink:href="#linearGradient2964"/><linearGradient id="linearGradient2964"><stop style="stop-color:#c1c1c1;stop-opacity:1" id="stop2966" offset="0"/><stop style="stop-color:#c1c1c1;stop-opacity:0" id="stop2968" offset="1"/></linearGradient><linearGradient id="linearGradient2698" x1="50.226" x2="50.226" y1="55.274" y2="50.109" gradientUnits="userSpaceOnUse" xlink:href="#linearGradient2945"/><linearGradient id="linearGradient3300"><stop style="stop-color:white;stop-opacity:.66425991" id="stop3302" offset="0"/><stop id="stop3304" offset=".258" style="stop-color:white;stop-opacity:1"/><stop style="stop-color:#fff;stop-opacity:0" id="stop3306" offset="1"/></linearGradient><linearGradient id="linearGradient2700" x1="26.218" x2="26.218" y1="47.294" y2="51.283" gradientUnits="userSpaceOnUse" xlink:href="#linearGradient2964"/><linearGradient id="linearGradient2702" x1="50.226" x2="50.226" y1="55.274" y2="50.109" gradientUnits="userSpaceOnUse" xlink:href="#linearGradient2945"/><linearGradient id="linearGradient3316"><stop style="stop-color:white;stop-opacity:.66425991" id="stop3318" offset="0"/><stop id="stop3320" offset=".258" style="stop-color:white;stop-opacity:1"/><stop style="stop-color:#fff;stop-opacity:0" id="stop3322" offset="1"/></linearGradient><linearGradient id="linearGradient2704" x1="26.218" x2="26.218" y1="47.294" y2="51.283" gradientUnits="userSpaceOnUse" xlink:href="#linearGradient2964"/><linearGradient id="linearGradient2692" x1="30.788" x2="39.095" y1="67.292" y2="67.292" gradientTransform="matrix(-0.69668042,-0.72321656,0.69667845,-0.72321861,-92.520665,1115.4268)" gradientUnits="userSpaceOnUse" xlink:href="#linearGradient3036"/><linearGradient id="linearGradient2690" x1="28.295" x2="86.087" y1="45.976" y2="129.418" gradientTransform="matrix(-0.69668042,-0.72321656,0.69667845,-0.72321861,-64.781038,1071.3842)" gradientUnits="userSpaceOnUse" xlink:href="#linearGradient3225"/><linearGradient id="linearGradient3225"><stop style="stop-color:#fff;stop-opacity:1" id="stop3227" offset="0"/><stop style="stop-color:#aeaeae;stop-opacity:1" id="stop3229" offset="1"/></linearGradient><linearGradient id="linearGradient2680" x1="24.894" x2="50.27" y1="101.847" y2="101.847" gradientTransform="translate(-0.629461,-4.312343)" gradientUnits="userSpaceOnUse" xlink:href="#linearGradient3225"/><linearGradient id="linearGradient3343"><stop style="stop-color:#fff;stop-opacity:1" id="stop3345" offset="0"/><stop style="stop-color:#aeaeae;stop-opacity:1" id="stop3347" offset="1"/></linearGradient><linearGradient id="linearGradient2682" x1="-23.214" x2="-20.226" y1="-64.645" y2="-13.334" gradientTransform="matrix(0.267438,0,0,0.147425,52.7012,100.6686)" gradientUnits="userSpaceOnUse" xlink:href="#linearGradient3225"/><linearGradient id="linearGradient3350"><stop style="stop-color:#fff;stop-opacity:1" id="stop3352" offset="0"/><stop style="stop-color:#aeaeae;stop-opacity:1" id="stop3354" offset="1"/></linearGradient><linearGradient id="linearGradient2684" x1="-23.214" x2="-20.226" y1="-64.645" y2="-13.334" gradientTransform="matrix(0.231002,0,0,0.147425,51.72028,103.332)" gradientUnits="userSpaceOnUse" xlink:href="#linearGradient3225"/><linearGradient id="linearGradient3357"><stop style="stop-color:#fff;stop-opacity:1" id="stop3359" offset="0"/><stop style="stop-color:#aeaeae;stop-opacity:1" id="stop3361" offset="1"/></linearGradient><linearGradient id="linearGradient2686" x1="-23.214" x2="-20.226" y1="-64.645" y2="-13.334" gradientTransform="matrix(0.204382,0,0,0.147425,51.00362,105.8654)" gradientUnits="userSpaceOnUse" xlink:href="#linearGradient3225"/><linearGradient id="linearGradient3364"><stop style="stop-color:#fff;stop-opacity:1" id="stop3366" offset="0"/><stop style="stop-color:#aeaeae;stop-opacity:1" id="stop3368" offset="1"/></linearGradient><linearGradient id="linearGradient2688" x1="-23.214" x2="-20.226" y1="-64.645" y2="-13.334" gradientTransform="matrix(0.178297,0,0,0.147425,50.30137,108.334)" gradientUnits="userSpaceOnUse" xlink:href="#linearGradient3225"/><linearGradient id="linearGradient3371"><stop style="stop-color:#fff;stop-opacity:1" id="stop3373" offset="0"/><stop style="stop-color:#aeaeae;stop-opacity:1" id="stop3375" offset="1"/></linearGradient><linearGradient id="linearGradient2678" x1="56.904" x2="48.123" y1="108.805" y2="117.976" gradientTransform="matrix(-0.69668042,-0.72321656,0.69667845,-0.72321861,-57.79244,1078.6389)" gradientUnits="userSpaceOnUse" xlink:href="#linearGradient3004"/><linearGradient id="linearGradient3004"><stop style="stop-color:#909090;stop-opacity:1" id="stop3006" offset="0"/><stop style="stop-color:black;stop-opacity:0" id="stop3008" offset="1"/></linearGradient><linearGradient id="linearGradient2674" x1="50.226" x2="50.226" y1="55.274" y2="50.109" gradientUnits="userSpaceOnUse" xlink:href="#linearGradient2945"/><linearGradient id="linearGradient3382"><stop style="stop-color:white;stop-opacity:.66425991" id="stop3384" offset="0"/><stop id="stop3386" offset=".258" style="stop-color:white;stop-opacity:1"/><stop style="stop-color:#fff;stop-opacity:0" id="stop3388" offset="1"/></linearGradient><linearGradient id="linearGradient2676" x1="26.218" x2="26.218" y1="47.294" y2="51.283" gradientUnits="userSpaceOnUse" xlink:href="#linearGradient2964"/><linearGradient id="linearGradient2670" x1="50.226" x2="50.226" y1="55.274" y2="50.109" gradientUnits="userSpaceOnUse" xlink:href="#linearGradient2945"/><linearGradient id="linearGradient3398"><stop style="stop-color:white;stop-opacity:.66425991" id="stop3400" offset="0"/><stop id="stop3402" offset=".258" style="stop-color:white;stop-opacity:1"/><stop style="stop-color:#fff;stop-opacity:0" id="stop3404" offset="1"/></linearGradient><linearGradient id="linearGradient2672" x1="26.218" x2="26.218" y1="47.294" y2="51.283" gradientUnits="userSpaceOnUse" xlink:href="#linearGradient2964"/><linearGradient id="linearGradient2666" x1="50.226" x2="50.226" y1="55.274" y2="50.109" gradientUnits="userSpaceOnUse" xlink:href="#linearGradient2945"/><linearGradient id="linearGradient3414"><stop style="stop-color:white;stop-opacity:.66425991" id="stop3416" offset="0"/><stop id="stop3418" offset=".258" style="stop-color:white;stop-opacity:1"/><stop style="stop-color:#fff;stop-opacity:0" id="stop3420" offset="1"/></linearGradient><linearGradient id="linearGradient2668" x1="26.218" x2="26.218" y1="47.294" y2="51.283" gradientUnits="userSpaceOnUse" xlink:href="#linearGradient2964"/><linearGradient id="linearGradient2664" x1="28.295" x2="86.087" y1="45.976" y2="129.418" gradientTransform="matrix(0.69668042,0.72321656,-0.69667845,0.72321861,-71.786799,944.09104)" gradientUnits="userSpaceOnUse" xlink:href="#linearGradient3225"/><linearGradient id="linearGradient3430"><stop style="stop-color:#fff;stop-opacity:1" id="stop3432" offset="0"/><stop style="stop-color:#aeaeae;stop-opacity:1" id="stop3434" offset="1"/></linearGradient><linearGradient id="linearGradient2653" x1="24.894" x2="50.27" y1="101.847" y2="101.847" gradientTransform="translate(-0.629461,-4.312343)" gradientUnits="userSpaceOnUse" xlink:href="#linearGradient3225"/><linearGradient id="linearGradient3437"><stop style="stop-color:#fff;stop-opacity:1" id="stop3439" offset="0"/><stop style="stop-color:#aeaeae;stop-opacity:1" id="stop3441" offset="1"/></linearGradient><linearGradient id="linearGradient2655" x1="-23.214" x2="-20.226" y1="-64.645" y2="-13.334" gradientTransform="matrix(0.267438,0,0,0.147425,52.7012,100.6686)" gradientUnits="userSpaceOnUse" xlink:href="#linearGradient3225"/><linearGradient id="linearGradient3444"><stop style="stop-color:#fff;stop-opacity:1" id="stop3446" offset="0"/><stop style="stop-color:#aeaeae;stop-opacity:1" id="stop3448" offset="1"/></linearGradient><linearGradient id="linearGradient2657" x1="-23.214" x2="-20.226" y1="-64.645" y2="-13.334" gradientTransform="matrix(0.231002,0,0,0.147425,51.72028,103.332)" gradientUnits="userSpaceOnUse" xlink:href="#linearGradient3225"/><linearGradient id="linearGradient3451"><stop style="stop-color:#fff;stop-opacity:1" id="stop3453" offset="0"/><stop style="stop-color:#aeaeae;stop-opacity:1" id="stop3455" offset="1"/></linearGradient><linearGradient id="linearGradient2659" x1="-23.214" x2="-20.226" y1="-64.645" y2="-13.334" gradientTransform="matrix(0.204382,0,0,0.147425,51.00362,105.8654)" gradientUnits="userSpaceOnUse" xlink:href="#linearGradient3225"/><linearGradient id="linearGradient3458"><stop style="stop-color:#fff;stop-opacity:1" id="stop3460" offset="0"/><stop style="stop-color:#aeaeae;stop-opacity:1" id="stop3462" offset="1"/></linearGradient><linearGradient id="linearGradient2661" x1="-23.214" x2="-20.226" y1="-64.645" y2="-13.334" gradientTransform="matrix(0.178297,0,0,0.147425,50.30137,108.334)" gradientUnits="userSpaceOnUse" xlink:href="#linearGradient3225"/><linearGradient id="linearGradient3465"><stop style="stop-color:#fff;stop-opacity:1" id="stop3467" offset="0"/><stop style="stop-color:#aeaeae;stop-opacity:1" id="stop3469" offset="1"/></linearGradient><linearGradient id="linearGradient2651" x1="56.904" x2="48.123" y1="108.805" y2="117.976" gradientTransform="matrix(0.69668042,0.72321656,-0.69667845,0.72321861,-78.775407,936.83623)" gradientUnits="userSpaceOnUse" xlink:href="#linearGradient3004"/><linearGradient id="linearGradient3472"><stop style="stop-color:#909090;stop-opacity:1" id="stop3474" offset="0"/><stop style="stop-color:black;stop-opacity:0" id="stop3476" offset="1"/></linearGradient><radialGradient id="radialGradient3297" cx="63.912" cy="115.709" r="63.912" fx="54.994" fy="115.709" gradientTransform="matrix(1,0,0,0.197802,0,92.82166)" gradientUnits="userSpaceOnUse" xlink:href="#linearGradient3291"/><linearGradient id="linearGradient3291"><stop style="stop-color:#000;stop-opacity:1" id="stop3293" offset="0"/><stop style="stop-color:#000;stop-opacity:0" id="stop3295" offset="1"/></linearGradient><radialGradient id="radialGradient3529" cx="63.912" cy="115.709" r="63.912" fx="54.994" fy="115.709" gradientTransform="matrix(1,0,0,0.197802,0,92.82166)" gradientUnits="userSpaceOnUse" xlink:href="#linearGradient3291"/></defs><metadata id="metadata7"/><g id="layer1" transform="translate(0,-924.36218)"><path style="fill:#231f20;stroke:none;fill-opacity:1" id="path4131-1" d="m 77.963925,1004.9364 -9.858444,14.0793 20.705555,31.4167 36.009414,-0.1169 -20.3916,-29.1222 -18.924073,-27.02631 z"/><path style="fill:#176fc1;stroke:none;fill-opacity:1" id="path4131" d="m 37.937097,1050.3155 43.441677,-62.04106 -43.400633,-61.98253 -34.7985926,0 43.7526146,62.48521 -43.0896957,61.53838 z"/><path style="fill:#231f20;stroke:none;fill-opacity:1" id="path4131-1-1" d="m 79.800055,941.8369 -11.451407,16.35432 17.047315,24.34609 39.383437,-56.24539 -16.90051,0 -17.194113,0 z"/><g id="g3427" transform="matrix(0.8,0,0,0.8,129.07078,192.49783)"><path id="path3289" d="m 127.82442,115.70919 a 63.912209,12.641975 0 1 1 -127.82442,0 63.912209,12.641975 0 1 1 127.82442,0 z" transform="matrix(1.0013736,0,0,0.416667,-132.28392,1016.2579)" style="opacity:.38139535;fill:url(#radialGradient3529);fill-opacity:1;fill-rule:nonzero;stroke:none"/><path id="path2276" d="m -80.836509,942.5154 0,-2.85838 0,2.85838 z" style="fill:#fff;fill-opacity:.75688076;fill-rule:nonzero;stroke:none"/><path style="fill:none;stroke:url(#linearGradient2651);stroke-width:5.52113914;stroke-linecap:round;stroke-linejoin:round;stroke-miterlimit:4;stroke-opacity:1;stroke-dasharray:none" id="path3002" d="m -111.08844,1051.5023 c -4.76429,5.766 -10.78606,10.6662 -18.43491,4.8824"/><g id="g2910" transform="matrix(0.69668042,0.72321656,-0.69667845,0.72321861,-71.310301,944.58568)"><path id="path1976" d="m 37.429069,92.40995 4.250672,10.25032 7.643035,0 4.250672,-10.25032 -5.89917,0 -4.346039,0 -5.89917,0 z" style="fill:url(#linearGradient2653);fill-opacity:1;fill-rule:evenodd;stroke:none"/><rect id="rect2880" width="17.677" height="1.949" x="36.663" y="92.541" rx=".708" ry=".872" style="fill:url(#linearGradient2655);fill-opacity:1;fill-rule:nonzero;stroke:none"/><rect style="fill:url(#linearGradient2657);fill-opacity:1;fill-rule:nonzero;stroke:none" id="rect2890" width="15.268" height="1.949" x="37.867" y="95.204" rx=".634" ry=".788"/><rect id="rect2894" width="13.509" height="1.949" x="38.747" y="97.737" rx=".61" ry=".679" style="fill:url(#linearGradient2659);fill-opacity:1;fill-rule:nonzero;stroke:none"/><rect style="fill:url(#linearGradient2661);fill-opacity:1;fill-rule:nonzero;stroke:none" id="rect2898" width="11.785" height="1.949" x="39.609" y="100.206" rx=".576" ry=".611"/></g><path id="path2917" d="m -82.365609,993.31778 28.233157,29.30852 c 2.012314,2.0889 2.020045,5.4444 0.01734,7.5234 l -27.605453,28.6571 c -2.002711,2.079 -4.954161,1.7182 -7.247335,-0.018 -10.918244,-8.2662 -20.21357,-18.038 -28.23316,-29.3086 -1.68667,-2.3704 -2.02004,-5.4444 -0.0173,-7.5234 l 27.605457,-28.657 c 2.002709,-2.079 5.235021,-2.07098 7.247335,0.018 z" style="fill:#777;fill-opacity:1;fill-rule:nonzero;stroke:#777;stroke-width:4;stroke-linecap:round;stroke-linejoin:round;stroke-miterlimit:4;stroke-opacity:1;stroke-dasharray:none;stroke-dashoffset:4"/><path style="fill:url(#linearGradient2664);fill-opacity:1;fill-rule:nonzero;stroke:none" id="rect1969" d="m -82.44687,993.89295 27.601521,28.65285 c 1.967295,2.0422 1.967299,5.3304 10e-6,7.3726 l -27.117208,28.1503 c -1.967289,2.0422 -4.858809,1.6958 -7.102135,0 -10.680905,-8.074 -19.767998,-17.6275 -27.601518,-28.6529 -1.64755,-2.3188 -1.9673,-5.3304 -2e-5,-7.3726 l 27.117213,-28.15024 c 1.967289,-2.04223 5.134842,-2.04224 7.102137,-10e-6 z"/><g id="g2976" transform="matrix(0.69668042,0.72321656,-0.69667845,0.72321861,-71.786799,944.09104)"><rect id="rect2935" width="39.897" height="7.979" x="26.218" y="47.294" rx="3.99" ry="3.99" style="fill:url(#linearGradient2666);fill-opacity:1;fill-rule:nonzero;stroke:none"/><rect style="fill:url(#linearGradient2668);fill-opacity:1;fill-rule:nonzero;stroke:none" id="rect2962" width="39.897" height="7.979" x="26.218" y="47.294" rx="3.99" ry="3.99"/></g><g id="g2980" transform="matrix(0.69668042,0.72321656,-0.69667845,0.72321861,-81.356396,954.02519)"><rect style="fill:url(#linearGradient2670);fill-opacity:1;fill-rule:nonzero;stroke:none" id="rect2982" width="39.897" height="7.979" x="26.218" y="47.294" rx="3.99" ry="3.99"/><rect id="rect2984" width="39.897" height="7.979" x="26.218" y="47.294" rx="3.99" ry="3.99" style="fill:url(#linearGradient2672);fill-opacity:1;fill-rule:nonzero;stroke:none"/></g><g id="g2990" transform="matrix(0.69668042,0.72321656,-0.69667845,0.72321861,-90.926003,963.95936)"><rect id="rect2992" width="39.897" height="7.979" x="26.218" y="47.294" rx="3.99" ry="3.99" style="fill:url(#linearGradient2674);fill-opacity:1;fill-rule:nonzero;stroke:none"/><rect style="fill:url(#linearGradient2676);fill-opacity:1;fill-rule:nonzero;stroke:none" id="rect2994" width="39.897" height="7.979" x="26.218" y="47.294" rx="3.99" ry="3.99"/></g><path id="path3847" d="m -25.479409,963.97288 c 4.76429,-5.76604 10.78606,-10.66621 18.4349097,-4.88238" style="fill:none;stroke:url(#linearGradient2678);stroke-width:5.52113914;stroke-linecap:round;stroke-linejoin:round;stroke-miterlimit:4;stroke-opacity:1;stroke-dasharray:none"/><g id="g3849" transform="matrix(-0.69668042,-0.72321656,0.69667845,-0.72321861,-65.257507,1070.8895)"><path style="fill:url(#linearGradient2680);fill-opacity:1;fill-rule:evenodd;stroke:none" id="path3851" d="m 37.429069,92.40995 4.250672,10.25032 7.643035,0 4.250672,-10.25032 -5.89917,0 -4.346039,0 -5.89917,0 z"/><rect style="fill:url(#linearGradient2682);fill-opacity:1;fill-rule:nonzero;stroke:none" id="rect3853" width="17.677" height="1.949" x="36.663" y="92.541" rx=".708" ry=".872"/><rect id="rect3855" width="15.268" height="1.949" x="37.867" y="95.204" rx=".634" ry=".788" style="fill:url(#linearGradient2684);fill-opacity:1;fill-rule:nonzero;stroke:none"/><rect style="fill:url(#linearGradient2686);fill-opacity:1;fill-rule:nonzero;stroke:none" id="rect3857" width="13.509" height="1.949" x="38.747" y="97.737" rx=".61" ry=".679"/><rect id="rect3859" width="11.785" height="1.949" x="39.609" y="100.206" rx=".576" ry=".611" style="fill:url(#linearGradient2688);fill-opacity:1;fill-rule:nonzero;stroke:none"/></g><path style="fill:#777;fill-opacity:1;fill-rule:nonzero;stroke:#777;stroke-width:4;stroke-linecap:round;stroke-linejoin:round;stroke-miterlimit:4;stroke-opacity:1;stroke-dasharray:none;stroke-dashoffset:4" id="path3861" d="m -54.202237,1022.1574 -28.233159,-29.3085 c -2.012311,-2.08897 -2.020045,-5.4444 -0.01733,-7.52341 l 27.605444,-28.65708 c 2.002714,-2.07901 4.954159,-1.71818 7.247335,0.018 10.918241,8.26615 20.213578,18.03796 28.233158,29.30854 1.68667,2.37042 2.02005,5.4444 0.0173,7.5234 l -27.605412,28.65715 c -2.002715,2.079 -5.235025,2.071 -7.247336,-0.018 z"/><path id="path3863" d="m -54.120973,1021.5822 -27.601524,-28.65278 c -1.967294,-2.04223 -1.967304,-5.33044 -9e-6,-7.37267 l 27.117202,-28.15025 c 1.967295,-2.04223 4.858816,-1.69581 7.102139,-1e-5 10.680903,8.07403 19.768006,17.62752 27.601526,28.65285 1.64754,2.31884 1.96729,5.33044 10e-6,7.37267 l -27.117215,28.15019 c -1.967285,2.0422 -5.134835,2.0423 -7.102129,0 z" style="fill:url(#linearGradient2690);fill-opacity:1;fill-rule:nonzero;stroke:none"/><path style="fill:url(#linearGradient2692);fill-opacity:1;fill-rule:nonzero;stroke:none" id="path3034" d="m -89.482816,1057.8698 c -13.428004,-13.9198 28.002825,-44.0852 34.911285,-35.5818 1.830196,2.2528 2.020047,5.4444 0.01734,7.5235 l -27.605453,28.657 c -2.002709,2.079 -5.310857,1.4902 -7.323172,-0.5987 z"/><g id="g2214" transform="matrix(0.9852532,0,0,1.0227838,-130.97882,939.15932)"><g id="g3865" transform="matrix(0.707108,0.707106,-0.707106,0.707108,75.72434,-9.635956)"><rect id="rect3867" width="39.897" height="7.979" x="26.218" y="47.294" rx="3.99" ry="3.99" style="fill:url(#linearGradient2694);fill-opacity:1;fill-rule:nonzero;stroke:none"/><rect style="fill:url(#linearGradient2696);fill-opacity:1;fill-rule:nonzero;stroke:none" id="rect3869" width="39.897" height="7.979" x="26.218" y="47.294" rx="3.99" ry="3.99"/></g><g id="g3871" transform="matrix(0.707108,0.707106,-0.707106,0.707108,85.43714,-19.34886)"><rect style="fill:url(#linearGradient2698);fill-opacity:1;fill-rule:nonzero;stroke:none" id="rect3873" width="39.897" height="7.979" x="26.218" y="47.294" rx="3.99" ry="3.99"/><rect id="rect3875" width="39.897" height="7.979" x="26.218" y="47.294" rx="3.99" ry="3.99" style="fill:url(#linearGradient2700);fill-opacity:1;fill-rule:nonzero;stroke:none"/></g><g id="g3877" transform="matrix(0.707108,0.707106,-0.707106,0.707108,95.15004,-29.06176)"><rect id="rect3879" width="39.897" height="7.979" x="26.218" y="47.294" rx="3.99" ry="3.99" style="fill:url(#linearGradient2702);fill-opacity:1;fill-rule:nonzero;stroke:none"/><rect style="fill:url(#linearGradient2704);fill-opacity:1;fill-rule:nonzero;stroke:none" id="rect3881" width="39.897" height="7.979" x="26.218" y="47.294" rx="3.99" ry="3.99"/></g></g><path id="path3883" d="m -54.847282,956.66841 c 2.002714,-2.07901 4.954159,-1.71818 7.247335,0.018 10.918241,8.26615 20.213578,18.03796 28.233158,29.30854 1.68667,2.37042 2.02005,5.4444 0.0173,7.5234 l -35.497793,-36.84994 z" style="fill:url(#linearGradient2706);fill-opacity:1;fill-rule:nonzero;stroke:none"/><path id="path3885" d="m -52.808882,1020.711 33.442093,-34.71608 c 2.00735,-2.08382 2.02005,5.4444 0.0173,7.52341 l -27.605412,28.65707 c -2.002715,2.079 -7.864203,0.6224 -5.853981,-1.4644 z" style="fill:url(#linearGradient2708);fill-opacity:1;fill-rule:nonzero;stroke:none"/><path id="path4071" d="m -82.44687,993.89295 27.601521,28.65285 c 1.967295,2.0422 1.967299,5.3304 10e-6,7.3726 l -3.868211,4.0363 -34.703668,-36.02549 3.868211,-4.03625 c 1.967289,-2.04223 5.134842,-2.04224 7.102137,-10e-6 z" style="fill:url(#linearGradient2710);fill-opacity:1;fill-rule:nonzero;stroke:none"/><path id="path2126" d="m -54.666404,1021.4939 -5.861601,-6.1231 c 12.553241,-15.0865 22.716094,-23.26805 36.467666,-35.36038 l 4.30522,5.90184 c 1.71379,2.34936 2.24467,5.26951 0.24195,7.34852 l -27.605441,28.65702 c -2.002709,2.079 -5.53548,1.6651 -7.547794,-0.4239 z" style="fill:url(#linearGradient2712);fill-opacity:1;fill-rule:nonzero;stroke:none"/><path style="fill:url(#linearGradient2714);fill-opacity:1;fill-rule:nonzero;stroke:none" id="path2130" d="m -54.333822,1021.5408 -27.601522,-28.65281 c -1.967294,-2.04223 -1.967298,-5.33044 -1e-5,-7.37267 l 3.868211,-4.03625 34.703668,36.02543 -3.868211,4.0363 c -1.967289,2.0422 -5.134842,2.0422 -7.102136,0 z"/><path id="path2134" d="m -88.522355,1058.5568 c -11.161314,-8.1445 -20.451295,-18.0778 -28.633925,-29.3124 -1.9673,-2.0422 -1.21285,-5.6602 0.75444,-7.7024 l 3.86821,-4.0363 35.180162,36.7675 -3.868211,4.0363 c -1.967289,2.0422 -5.212928,1.7708 -7.300676,0.2473 z" style="fill:url(#linearGradient2716);fill-opacity:1;fill-rule:nonzero;stroke:none"/><path style="fill:url(#linearGradient2421)" id="path24" d="m -49.08817,1043.033 c -5.7715,-6.0307 -18.248892,-19.0697 -18.248892,-19.0697 l -8.946857,9.3513 27.195749,28.423 40.8042507,-42.6493 -8.9480697,-9.3507 c 0,0 -24.977252,26.1064 -31.856181,33.2954 z"/></g></g></svg>