<svg xmlns="http://www.w3.org/2000/svg" xmlns:cc="http://web.resource.org/cc/" xmlns:svg="http://www.w3.org/2000/svg" xmlns:xlink="http://www.w3.org/1999/xlink" id="svg2606" width="128" height="128" version="1.0"><defs id="defs2608"><linearGradient id="linearGradient3364"><stop id="stop3366" offset="0" style="stop-color:#f0ff80;stop-opacity:1"/><stop id="stop3368" offset="1" style="stop-color:#f0ff80;stop-opacity:0"/></linearGradient><radialGradient id="radialGradient3346" cx="48" cy="-.215" r="55.148" gradientTransform="matrix(0.9792,0,0,0.9725,133.0002,20.8762)" gradientUnits="userSpaceOnUse"><stop id="stop3350" offset="0" style="stop-color:#008c00"/><stop id="stop3352" offset=".355" style="stop-color:#35ac1c"/><stop id="stop3354" offset=".619" style="stop-color:#0f9508"/><stop id="stop3356" offset=".757" style="stop-color:#008c00"/><stop id="stop3358" offset="1" style="stop-color:#004d00"/></radialGradient><linearGradient id="linearGradient3340"><stop id="stop3342" offset="0" style="stop-color:#bfffbf;stop-opacity:1"/><stop id="stop3344" offset="1" style="stop-color:#bfffbf;stop-opacity:0"/></linearGradient><radialGradient id="radialGradient3325" cx="48" cy="-.215" r="55.148" gradientTransform="matrix(0.9792,0,0,0.9725,133.0002,20.8762)" gradientUnits="userSpaceOnUse"><stop id="stop3327" offset="0" style="stop-color:#0f0"/><stop id="stop3332" offset=".355" style="stop-color:#35ac1c"/><stop id="stop3334" offset=".619" style="stop-color:#0f9508"/><stop id="stop3336" offset=".757" style="stop-color:#008c00"/><stop id="stop3338" offset="1" style="stop-color:#004d00"/></radialGradient><linearGradient id="linearGradient3326"><stop style="stop-color:#000;stop-opacity:1" id="stop3328" offset="0"/><stop style="stop-color:#000;stop-opacity:0" id="stop3330" offset="1"/></linearGradient><linearGradient id="linearGradient3825"><stop style="stop-color:#fff;stop-opacity:0" id="stop3827" offset="0"/><stop id="stop3833" offset=".5" style="stop-color:#fff;stop-opacity:.18705036"/><stop style="stop-color:#fff;stop-opacity:1" id="stop3829" offset="1"/></linearGradient><linearGradient id="linearGradient3790"><stop style="stop-color:#fff;stop-opacity:1" id="stop3792" offset="0"/><stop style="stop-color:#fff;stop-opacity:0" id="stop3794" offset="1"/></linearGradient><linearGradient id="linearGradient3777"><stop style="stop-color:#000;stop-opacity:1" id="stop3779" offset="0"/><stop style="stop-color:#000;stop-opacity:0" id="stop3781" offset="1"/></linearGradient><linearGradient id="linearGradient3751"><stop style="stop-color:#53be2c;stop-opacity:1" id="stop3753" offset="0"/><stop style="stop-color:#53be2c;stop-opacity:0" id="stop3755" offset="1"/></linearGradient><linearGradient id="linearGradient3528"><stop style="stop-color:#0f0;stop-opacity:1" id="stop3530" offset="0"/><stop style="stop-color:#004d00;stop-opacity:0" id="stop3532" offset="1"/></linearGradient><linearGradient id="linearGradient3295"><stop style="stop-color:#baff63;stop-opacity:1" id="stop3297" offset="0"/><stop style="stop-color:#fff;stop-opacity:0" id="stop3299" offset="1"/></linearGradient><linearGradient id="linearGradient3202"><stop style="stop-color:#cbff9c;stop-opacity:1" id="stop3204" offset="0"/><stop style="stop-color:#65c171;stop-opacity:0" id="stop3206" offset="1"/></linearGradient><linearGradient id="linearGradient3647"><stop style="stop-color:#c2ebab;stop-opacity:1" id="stop3649" offset="0"/><stop style="stop-color:#71d03c;stop-opacity:0" id="stop3651" offset="1"/></linearGradient><radialGradient id="XMLID_4_" cx="48" cy="-.215" r="55.148" gradientTransform="matrix(0.9792,0,0,0.9725,133.0002,20.8762)" gradientUnits="userSpaceOnUse"><stop style="stop-color:#72d13d" id="stop3082" offset="0"/><stop style="stop-color:#35ac1c" id="stop3084" offset=".355"/><stop style="stop-color:#0f9508" id="stop3086" offset=".619"/><stop style="stop-color:#008c00" id="stop3088" offset=".757"/><stop style="stop-color:#007a00" id="stop3090" offset="1"/></radialGradient><linearGradient id="linearGradient3470" x1="123.5" x2="220.5" y1="76" y2="76" gradientUnits="userSpaceOnUse" xlink:href="#XMLID_4_"/><radialGradient id="radialGradient3482" cx="172" cy="76" r="56" fx="172" fy="76" gradientTransform="matrix(1,0,0,1.1383929,0,-10.517857)" gradientUnits="userSpaceOnUse" xlink:href="#XMLID_4_"/><radialGradient id="radialGradient3575" cx="172" cy="76" r="56" fx="172" fy="76" gradientTransform="matrix(1,0,0,1.1383929,0,-10.517857)" gradientUnits="userSpaceOnUse" xlink:href="#XMLID_4_"/><radialGradient id="radialGradient3592" cx="172" cy="76" r="56" fx="175" fy="103.231" gradientTransform="matrix(1,0,0,1.1383929,-108,-22.517857)" gradientUnits="userSpaceOnUse" xlink:href="#XMLID_4_"/><radialGradient id="radialGradient3629" cx="172" cy="76" r="56" fx="172" fy="76" gradientTransform="matrix(1,0,0,1.1383929,0,-10.517857)" gradientUnits="userSpaceOnUse" xlink:href="#XMLID_4_"/><linearGradient id="linearGradient3633" x1="123.5" x2="220.5" y1="76" y2="76" gradientUnits="userSpaceOnUse" xlink:href="#XMLID_4_"/><linearGradient id="linearGradient3653" x1="174.5" x2="174.5" y1="36.567" y2="93.2" gradientUnits="userSpaceOnUse" xlink:href="#linearGradient3647"/><linearGradient id="linearGradient3953" x1="174.5" x2="174.5" y1="36.567" y2="93.2" gradientUnits="userSpaceOnUse" xlink:href="#linearGradient3647"/><radialGradient id="radialGradient3184" cx="172" cy="76" r="56" fx="172" fy="76" gradientTransform="matrix(1,0,0,1.1383929,0,-10.517857)" gradientUnits="userSpaceOnUse" xlink:href="#XMLID_4_"/><linearGradient id="linearGradient3286" x1="123.5" x2="220.5" y1="76" y2="76" gradientUnits="userSpaceOnUse" xlink:href="#XMLID_4_"/><radialGradient id="radialGradient3465" cx="172" cy="76" r="56" fx="172" fy="76" gradientTransform="matrix(1,0,0,1.1383929,0,-10.517857)" gradientUnits="userSpaceOnUse" xlink:href="#XMLID_4_"/><radialGradient id="radialGradient3467" cx="172" cy="76" r="56" fx="180.75" fy="125.049" gradientTransform="matrix(1,0,0,1.1383929,0,-10.517857)" gradientUnits="userSpaceOnUse" xlink:href="#XMLID_4_"/><linearGradient id="linearGradient3517" x1="179.172" x2="173.981" y1="123.759" y2="65.448" gradientUnits="userSpaceOnUse" xlink:href="#linearGradient3295"/><radialGradient id="radialGradient3534" cx="-16.668" cy="86.827" r="60" fx="-16.668" fy="86.827" gradientTransform="matrix(-0.2586607,-0.5212474,-0.8274344,0.4106011,153.53945,50.055595)" gradientUnits="userSpaceOnUse" xlink:href="#linearGradient3449"/><linearGradient id="linearGradient3530" x1="223.327" x2="226.659" y1="53.784" y2="57.279" gradientTransform="matrix(1,0,0,0.8610463,-108.16138,-1.4361867)" gradientUnits="userSpaceOnUse" spreadMethod="reflect" xlink:href="#linearGradient3260"/><linearGradient id="linearGradient3526" x1="196.468" x2="52.218" y1="63.139" y2="66.224" gradientTransform="translate(-0.2125256,-0.1385179)" gradientUnits="userSpaceOnUse" xlink:href="#linearGradient3260"/><linearGradient id="linearGradient3504" x1="87.468" x2="116.718" y1="-.361" y2="106.428" gradientTransform="translate(-0.2125256,-0.1385179)" gradientUnits="userSpaceOnUse" xlink:href="#linearGradient3260"/><linearGradient id="linearGradient3458" x1="179.172" x2="173.981" y1="123.759" y2="65.448" gradientUnits="userSpaceOnUse" xlink:href="#linearGradient3295"/><radialGradient id="radialGradient3453" cx="172" cy="76" r="56" fx="172" fy="76" gradientTransform="matrix(1,0,0,1.1383929,0,-10.517857)" gradientUnits="userSpaceOnUse" xlink:href="#XMLID_4_"/><linearGradient id="linearGradient3327"><stop style="stop-color:#baff63;stop-opacity:1" id="stop3329" offset="0"/><stop style="stop-color:#fff;stop-opacity:0" id="stop3331" offset="1"/></linearGradient><linearGradient id="linearGradient3339"><stop style="stop-color:#cbff9c;stop-opacity:1" id="stop3341" offset="0"/><stop style="stop-color:#65c171;stop-opacity:0" id="stop3343" offset="1"/></linearGradient><linearGradient id="linearGradient3345"><stop style="stop-color:#c2ebab;stop-opacity:1" id="stop3347" offset="0"/><stop style="stop-color:#71d03c;stop-opacity:0" id="stop3349" offset="1"/></linearGradient><radialGradient id="radialGradient3351" cx="48" cy="-.215" r="55.148" gradientTransform="matrix(0.9792,0,0,0.9725,133.0002,20.8762)" gradientUnits="userSpaceOnUse"><stop style="stop-color:#72d13d" id="stop3353" offset="0"/><stop style="stop-color:#35ac1c" id="stop3454" offset=".355"/><stop style="stop-color:#0f9508" id="stop3456" offset=".619"/><stop style="stop-color:#008c00" id="stop3359" offset=".757"/><stop style="stop-color:#007a00" id="stop3459" offset="1"/></radialGradient><linearGradient id="linearGradient3363" x1="123.5" x2="220.5" y1="76" y2="76" gradientUnits="userSpaceOnUse" xlink:href="#XMLID_4_"/><radialGradient id="radialGradient3448" cx="172" cy="76" r="56" fx="172" fy="76" gradientTransform="matrix(1,0,0,1.1383929,0,-10.517857)" gradientUnits="userSpaceOnUse" xlink:href="#XMLID_4_"/><radialGradient id="radialGradient3367" cx="172" cy="76" r="56" fx="172" fy="76" gradientTransform="matrix(1,0,0,1.1383929,0,-10.517857)" gradientUnits="userSpaceOnUse" xlink:href="#XMLID_4_"/><radialGradient id="radialGradient3369" cx="172" cy="76" r="56" fx="175" fy="103.231" gradientTransform="matrix(1,0,0,1.1383929,-108,-22.517857)" gradientUnits="userSpaceOnUse" xlink:href="#XMLID_4_"/><radialGradient id="radialGradient3371" cx="172" cy="76" r="56" fx="172" fy="76" gradientTransform="matrix(1,0,0,1.1383929,0,-10.517857)" gradientUnits="userSpaceOnUse" xlink:href="#XMLID_4_"/><linearGradient id="linearGradient3373" x1="123.5" x2="220.5" y1="76" y2="76" gradientUnits="userSpaceOnUse" xlink:href="#XMLID_4_"/><linearGradient id="linearGradient3375" x1="174.5" x2="174.5" y1="36.567" y2="93.2" gradientUnits="userSpaceOnUse" xlink:href="#linearGradient3647"/><linearGradient id="linearGradient3441" x1="174.5" x2="174.5" y1="36.567" y2="93.2" gradientUnits="userSpaceOnUse" xlink:href="#linearGradient3647"/><radialGradient id="radialGradient3439" cx="172" cy="76" r="56" fx="172" fy="76" gradientTransform="matrix(1,0,0,1.1383929,0,-10.517857)" gradientUnits="userSpaceOnUse" xlink:href="#XMLID_4_"/><linearGradient id="linearGradient3381" x1="74.035" x2="75.957" y1="16.154" y2="83.236" gradientUnits="userSpaceOnUse" xlink:href="#linearGradient3202"/><radialGradient id="radialGradient3436" cx="172" cy="76" r="56" fx="180.75" fy="125.049" gradientTransform="matrix(1,0,0,1.1383929,0,-10.517857)" gradientUnits="userSpaceOnUse" xlink:href="#XMLID_4_"/><linearGradient id="linearGradient3385" x1="79.59" x2="67.74" y1="13.043" y2="76.456" gradientUnits="userSpaceOnUse" xlink:href="#linearGradient3260"/><linearGradient id="linearGradient3433" x1="123.5" x2="220.5" y1="76" y2="76" gradientUnits="userSpaceOnUse" xlink:href="#XMLID_4_"/><linearGradient id="linearGradient3431" x1="73.743" x2="78.939" y1="15.337" y2="16.751" gradientUnits="userSpaceOnUse" spreadMethod="reflect" xlink:href="#linearGradient3260"/><linearGradient id="linearGradient3395" x1="74.75" x2="78.939" y1="14.276" y2="16.751" gradientUnits="userSpaceOnUse" spreadMethod="reflect" xlink:href="#linearGradient3295"/><linearGradient id="linearGradient3397" x1="108" x2="212" y1="76" y2="108.519" gradientTransform="matrix(1,0,0,0.8610463,-108,-1.4361867)" gradientUnits="userSpaceOnUse" xlink:href="#XMLID_4_"/><linearGradient id="linearGradient3399" x1="223.327" x2="226.659" y1="53.784" y2="57.279" gradientTransform="matrix(1,0,0,0.8610463,-108.16138,-1.4361867)" gradientUnits="userSpaceOnUse" spreadMethod="reflect" xlink:href="#linearGradient3260"/><radialGradient id="radialGradient3405" cx="72.021" cy="66.345" r="60" fx="72.021" fy="66.345" gradientTransform="matrix(0.5816285,1.767767e-2,-2.6986249e-2,0.8878982,31.921846,5.9419094)" gradientUnits="userSpaceOnUse" xlink:href="#linearGradient3449"/><radialGradient id="radialGradient3407" cx="172" cy="76" r="56" fx="172" fy="76" gradientTransform="matrix(1,0,0,1.1383929,0,-10.517857)" gradientUnits="userSpaceOnUse" xlink:href="#XMLID_4_"/><radialGradient id="radialGradient3409" cx="172" cy="76" r="56" fx="180.75" fy="125.049" gradientTransform="matrix(1,0,0,1.1383929,0,-10.517857)" gradientUnits="userSpaceOnUse" xlink:href="#XMLID_4_"/><linearGradient id="linearGradient3415" x1="179.172" x2="173.981" y1="123.759" y2="65.448" gradientUnits="userSpaceOnUse" xlink:href="#linearGradient3295"/><linearGradient id="linearGradient3418" x1="223.327" x2="226.659" y1="53.784" y2="57.279" gradientTransform="matrix(1,0,0,0.8610463,-108.16138,-1.4361867)" gradientUnits="userSpaceOnUse" spreadMethod="reflect" xlink:href="#linearGradient3202"/><linearGradient id="linearGradient3253" x1="47.968" x2="47.968" y1="16.139" y2="86.178" gradientTransform="translate(-0.5,0)" gradientUnits="userSpaceOnUse" xlink:href="#linearGradient3202"/><radialGradient id="radialGradient2238" cx="172" cy="76" r="56" fx="180.75" fy="125.049" gradientTransform="matrix(1,0,0,1.1383929,0,-10.517857)" gradientUnits="userSpaceOnUse" xlink:href="#XMLID_4_"/><radialGradient id="radialGradient2236" cx="172" cy="76" r="56" fx="172" fy="76" gradientTransform="matrix(1,0,0,1.1383929,0,-10.517857)" gradientUnits="userSpaceOnUse" xlink:href="#XMLID_4_"/><linearGradient id="linearGradient2228" x1="179.172" x2="173.981" y1="123.759" y2="65.448" gradientTransform="translate(98,0)" gradientUnits="userSpaceOnUse" xlink:href="#linearGradient3295"/><linearGradient id="linearGradient2226" x1="179.172" x2="173.981" y1="123.759" y2="65.448" gradientUnits="userSpaceOnUse" xlink:href="#linearGradient3295"/><linearGradient id="linearGradient2220" x1="179.172" x2="173.981" y1="123.759" y2="65.448" gradientUnits="userSpaceOnUse" xlink:href="#linearGradient3295"/><linearGradient id="linearGradient3521" x1="223.327" x2="226.659" y1="53.784" y2="57.279" gradientTransform="matrix(1,0,0,0.8610463,-108.16138,-1.4361867)" gradientUnits="userSpaceOnUse" spreadMethod="reflect" xlink:href="#linearGradient3202"/><linearGradient id="linearGradient3414" x1="179.172" x2="173.981" y1="123.759" y2="65.448" gradientUnits="userSpaceOnUse" xlink:href="#linearGradient3295"/><radialGradient id="radialGradient3408" cx="172" cy="76" r="56" fx="180.75" fy="125.049" gradientTransform="matrix(1,0,0,1.1383929,0,-10.517857)" gradientUnits="userSpaceOnUse" xlink:href="#XMLID_4_"/><radialGradient id="radialGradient3406" cx="172" cy="76" r="56" fx="172" fy="76" gradientTransform="matrix(1,0,0,1.1383929,0,-10.517857)" gradientUnits="userSpaceOnUse" xlink:href="#XMLID_4_"/><radialGradient id="radialGradient3455" cx="72.021" cy="66.345" r="60" fx="72.021" fy="66.345" gradientTransform="matrix(-0.5816285,1.767767e-2,2.6986249e-2,0.8878982,86.078154,5.9419094)" gradientUnits="userSpaceOnUse" xlink:href="#linearGradient3449"/><linearGradient id="linearGradient3409" x1="108" x2="212" y1="76" y2="108.519" gradientTransform="matrix(-1,0,0,0.8610463,236,-1.4361867)" gradientUnits="userSpaceOnUse" xlink:href="#XMLID_4_"/><linearGradient id="linearGradient3393" x1="74.75" x2="78.939" y1="14.276" y2="16.751" gradientUnits="userSpaceOnUse" spreadMethod="reflect" xlink:href="#linearGradient3295"/><linearGradient id="linearGradient3301" x1="73.743" x2="78.939" y1="15.337" y2="16.751" gradientUnits="userSpaceOnUse" spreadMethod="reflect" xlink:href="#linearGradient3260"/><linearGradient id="linearGradient3396" x1="123.5" x2="220.5" y1="76" y2="76" gradientUnits="userSpaceOnUse" xlink:href="#XMLID_4_"/><radialGradient id="radialGradient3213" cx="172" cy="76" r="56" fx="188.882" fy="121.442" gradientTransform="matrix(1,0,0,1.1383929,0,-10.517857)" gradientUnits="userSpaceOnUse" xlink:href="#XMLID_4_"/><radialGradient id="radialGradient3393" cx="172" cy="76" r="56" fx="172" fy="76" gradientTransform="matrix(1,0,0,1.1383929,0,-10.517857)" gradientUnits="userSpaceOnUse" xlink:href="#XMLID_4_"/><linearGradient id="linearGradient3391" x1="174.5" x2="174.5" y1="36.567" y2="93.2" gradientUnits="userSpaceOnUse" xlink:href="#linearGradient3647"/><linearGradient id="linearGradient3389" x1="174.5" x2="174.5" y1="36.567" y2="93.2" gradientUnits="userSpaceOnUse" xlink:href="#linearGradient3647"/><linearGradient id="linearGradient3387" x1="123.5" x2="220.5" y1="76" y2="76" gradientUnits="userSpaceOnUse" xlink:href="#XMLID_4_"/><radialGradient id="radialGradient3385" cx="172" cy="76" r="56" fx="172" fy="76" gradientTransform="matrix(1,0,0,1.1383929,0,-10.517857)" gradientUnits="userSpaceOnUse" xlink:href="#XMLID_4_"/><radialGradient id="radialGradient3383" cx="172" cy="76" r="56" fx="175" fy="103.231" gradientTransform="matrix(1,0,0,1.1383929,-108,-22.517857)" gradientUnits="userSpaceOnUse" xlink:href="#XMLID_4_"/><radialGradient id="radialGradient3381" cx="172" cy="76" r="56" fx="172" fy="76" gradientTransform="matrix(1,0,0,1.1383929,0,-10.517857)" gradientUnits="userSpaceOnUse" xlink:href="#XMLID_4_"/><radialGradient id="radialGradient3379" cx="172" cy="76" r="56" fx="172" fy="76" gradientTransform="matrix(1,0,0,1.1383929,0,-10.517857)" gradientUnits="userSpaceOnUse" xlink:href="#XMLID_4_"/><linearGradient id="linearGradient3377" x1="123.5" x2="220.5" y1="76" y2="76" gradientUnits="userSpaceOnUse" xlink:href="#XMLID_4_"/><radialGradient id="radialGradient3365" cx="48" cy="-.215" r="55.148" gradientTransform="matrix(0.9792,0,0,0.9725,133.0002,20.8762)" gradientUnits="userSpaceOnUse"><stop id="stop3367" offset="0" style="stop-color:#72d13d"/><stop id="stop3369" offset=".355" style="stop-color:#35ac1c"/><stop id="stop3371" offset=".619" style="stop-color:#0f9508"/><stop id="stop3373" offset=".757" style="stop-color:#008c00"/><stop id="stop3375" offset="1" style="stop-color:#007a00"/></radialGradient><linearGradient id="linearGradient3359"><stop id="stop3361" offset="0" style="stop-color:#c2ebab;stop-opacity:1"/><stop id="stop3363" offset="1" style="stop-color:#71d03c;stop-opacity:0"/></linearGradient><linearGradient id="linearGradient3353"><stop id="stop3355" offset="0" style="stop-color:#cbff9c;stop-opacity:1"/><stop id="stop3357" offset="1" style="stop-color:#65c171;stop-opacity:0"/></linearGradient><linearGradient id="linearGradient3260"><stop id="stop3262" offset="0" style="stop-color:#fff;stop-opacity:1"/><stop id="stop3264" offset="1" style="stop-color:#fff;stop-opacity:0"/></linearGradient><linearGradient id="linearGradient3344"><stop id="stop3346" offset="0" style="stop-color:#baff63;stop-opacity:1"/><stop id="stop3348" offset="1" style="stop-color:#fff;stop-opacity:0"/></linearGradient><linearGradient id="linearGradient3449"><stop id="stop3451" offset="0" style="stop-color:#000;stop-opacity:1"/><stop id="stop3453" offset="1" style="stop-color:#000;stop-opacity:0"/></linearGradient><radialGradient id="radialGradient3492" cx="172" cy="76" r="56" fx="172" fy="76" gradientTransform="matrix(1,0,0,1.1383929,0,-10.517857)" gradientUnits="userSpaceOnUse" xlink:href="#XMLID_4_"/><linearGradient id="linearGradient3516" x1="64.089" x2="64.089" y1="9.679" y2="123.906" gradientUnits="userSpaceOnUse" xlink:href="#radialGradient3346"/><radialGradient id="radialGradient3524" cx="67.094" cy="116.906" r="56" fx="67.094" fy="116.906" gradientTransform="matrix(1.2784101,0,0,1.2784101,-18.679575,-32.547876)" gradientUnits="userSpaceOnUse" xlink:href="#radialGradient3325"/><radialGradient id="radialGradient3535" cx="99.726" cy="27.418" r="56" fx="64.69" fy="68.232" gradientTransform="matrix(0.693735,5.8671246e-2,-3.6242796e-2,0.4285387,33.939389,26.8809)" gradientUnits="userSpaceOnUse" xlink:href="#linearGradient3528"/><linearGradient id="linearGradient3548" x1="75.094" x2="75.094" y1="4.532" y2="80.172" gradientUnits="userSpaceOnUse" xlink:href="#linearGradient3340"/><linearGradient id="linearGradient3581" x1="75.094" x2="75.094" y1="4.532" y2="80.172" gradientTransform="translate(4.2161108e-3,1.9705695e-3)" gradientUnits="userSpaceOnUse" xlink:href="#linearGradient3260"/><linearGradient id="linearGradient3613" x1="208.594" x2="208.594" y1="130.406" y2="63.427" gradientTransform="translate(-137,0)" gradientUnits="userSpaceOnUse" xlink:href="#linearGradient3364"/><radialGradient id="radialGradient3654" cx="-10.165" cy="66.906" r="59.995" fx="-10.165" fy="66.906" gradientTransform="matrix(0.4582893,-2.1035589e-8,4.5903973e-8,1.0000813,20.447953,-5.1974351e-3)" gradientUnits="userSpaceOnUse" xlink:href="#linearGradient3449"/><radialGradient id="radialGradient3658" cx="167.67" cy="80.405" r="59.995" fx="167.67" fy="80.405" gradientTransform="matrix(0.2676699,0.521376,-0.7037472,0.3612977,108.99386,-36.062981)" gradientUnits="userSpaceOnUse" xlink:href="#linearGradient3449"/><linearGradient id="linearGradient3676" x1="120.063" x2="125.304" y1="12.569" y2="14.444" gradientUnits="userSpaceOnUse" spreadMethod="reflect" xlink:href="#linearGradient3260"/><filter id="filter3738" width="1.302" height="1.275" x="-.151" y="-.137"><feGaussianBlur id="feGaussianBlur3740" stdDeviation=".393"/></filter><radialGradient id="radialGradient3744" cx="46.254" cy="86.725" r="59.995" fx="46.254" fy="86.725" gradientTransform="matrix(-2.3607361e-7,1.1093034,-1.0633726,-1.4106669e-7,156.30951,-2.406116)" gradientUnits="userSpaceOnUse" xlink:href="#linearGradient3449"/><radialGradient id="radialGradient3757" cx="66.015" cy="126.692" r="59.995" fx="66.015" fy="126.692" gradientTransform="matrix(0.675025,0,0,0.3583625,19.527377,41.004647)" gradientUnits="userSpaceOnUse" xlink:href="#linearGradient3751"/><radialGradient id="radialGradient3767" cx="64.089" cy="7.411" r="59.995" fx="64.089" fy="7.411" gradientTransform="matrix(0.3093869,0,0,0.4779247,44.260611,3.8644223)" gradientUnits="userSpaceOnUse" xlink:href="#linearGradient3260"/><linearGradient id="linearGradient3771" x1="120.063" x2="125.304" y1="12.569" y2="14.444" gradientUnits="userSpaceOnUse" spreadMethod="reflect" xlink:href="#linearGradient3344"/><linearGradient id="linearGradient3783" x1="152.02" x2="152.44" y1="53.585" y2="83.822" gradientUnits="userSpaceOnUse" xlink:href="#linearGradient3777"/><linearGradient id="linearGradient3786" x1="105.299" x2="128.536" y1="80.977" y2="57.672" gradientTransform="matrix(0.9893919,0.1452708,-0.1452708,0.9893919,-310.41988,0)" gradientUnits="userSpaceOnUse" xlink:href="#linearGradient3260"/><linearGradient id="linearGradient3796" x1="59.961" x2="147.69" y1="72.002" y2="42.618" gradientUnits="userSpaceOnUse" xlink:href="#linearGradient3790"/><linearGradient id="linearGradient3800" x1="131.297" x2="126.87" y1="80.376" y2="53.628" gradientTransform="matrix(0.9893919,0.1452708,-0.1452708,0.9893919,-311.12698,0)" gradientUnits="userSpaceOnUse" xlink:href="#linearGradient3260"/><linearGradient id="linearGradient3819" x1="105.299" x2="128.536" y1="80.977" y2="57.672" gradientTransform="matrix(0.9893919,0.1452708,-0.1452708,0.9893919,-310.41988,0)" gradientUnits="userSpaceOnUse" xlink:href="#linearGradient3260"/><mask id="mask3815" maskUnits="userSpaceOnUse"><path style="opacity:1;fill:url(#linearGradient3819);fill-opacity:1;stroke:none;stroke-width:1;stroke-linecap:round;stroke-linejoin:round;stroke-miterlimit:4;stroke-dashoffset:1.08779998;stroke-opacity:1" id="path3817" d="M -223.76561,66.77675 L -167.79715,74.994508 L -172.2142,105.07755 L -264.2451,98.274008 L -223.76561,66.77675 z"/></mask><radialGradient id="radialGradient3831" cx="-212" cy="79.23" r="59.995" fx="-212.975" fy="20.334" gradientTransform="matrix(0.6484284,0.1017206,-3.1257154e-2,0.1992521,243.43743,84.15916)" gradientUnits="userSpaceOnUse" xlink:href="#linearGradient3825"/><radialGradient id="radialGradient2340" cx="-112.172" cy="118.605" r="59.995" fx="-113.148" fy="59.708" gradientTransform="matrix(0.6484284,0.1017206,-3.1257154e-2,0.1992521,-4.56257,53.15916)" gradientUnits="userSpaceOnUse" xlink:href="#linearGradient3825"/><linearGradient id="linearGradient3332" x1="-145" x2="-151.5" y1="37.75" y2="64.75" gradientUnits="userSpaceOnUse" xlink:href="#linearGradient3326"/><filter id="filter3438"><feGaussianBlur id="feGaussianBlur3440" stdDeviation="1.334"/></filter><linearGradient id="linearGradient3444" x1="-143.5" x2="-151.5" y1="34.5" y2="64.75" gradientUnits="userSpaceOnUse" xlink:href="#linearGradient3326"/><linearGradient id="linearGradient3477" x1="-152.5" x2="-150.5" y1="34.5" y2="57.25" gradientUnits="userSpaceOnUse" xlink:href="#linearGradient3326"/><linearGradient id="linearGradient3479" x1="-126.5" x2="-151.5" y1="34.5" y2="64.75" gradientUnits="userSpaceOnUse" xlink:href="#linearGradient3326"/><linearGradient id="linearGradient3572" x1="-132.51" x2="-158.925" y1="39.803" y2="72.882" gradientUnits="userSpaceOnUse" xlink:href="#linearGradient3326"/><linearGradient id="linearGradient3574" x1="-151.439" x2="-152.268" y1="37.682" y2="57.25" gradientUnits="userSpaceOnUse" xlink:href="#linearGradient3326"/><linearGradient id="linearGradient3578" x1="-83.013" x2="-158.925" y1="44.753" y2="72.882" gradientUnits="userSpaceOnUse" xlink:href="#linearGradient3326"/><radialGradient id="radialGradient3580" cx="-112.172" cy="118.605" r="59.995" fx="-113.148" fy="59.708" gradientTransform="matrix(0.6484284,0.1017206,-3.1257154e-2,0.1992521,-4.56257,53.15916)" gradientUnits="userSpaceOnUse" xlink:href="#linearGradient3825"/><radialGradient id="radialGradient3594" cx="-112.172" cy="118.605" r="59.995" fx="-113.148" fy="59.708" gradientTransform="matrix(0.6484284,0.1017206,-3.1257154e-2,0.1992521,-4.56257,53.15916)" gradientUnits="userSpaceOnUse" xlink:href="#linearGradient3825"/><linearGradient id="linearGradient3596" x1="-151.439" x2="-152.268" y1="37.682" y2="57.25" gradientUnits="userSpaceOnUse" xlink:href="#linearGradient3326"/><linearGradient id="linearGradient3598" x1="-132.51" x2="-158.925" y1="39.803" y2="72.882" gradientUnits="userSpaceOnUse" xlink:href="#linearGradient3326"/><linearGradient id="linearGradient3600" x1="-83.013" x2="-158.925" y1="44.753" y2="72.882" gradientUnits="userSpaceOnUse" xlink:href="#linearGradient3326"/><mask id="mask3582" maskUnits="userSpaceOnUse"><g id="g3584" transform="translate(248.01637,30.885255)"><path style="opacity:1;fill:url(#radialGradient3594);fill-opacity:1;stroke:none;stroke-width:2;stroke-linecap:round;stroke-linejoin:round;stroke-miterlimit:4;stroke-dashoffset:1.08779998;stroke-opacity:1" id="path3586" d="M -184.42232,-32.47243 C -217.54751,-32.47243 -248.42232,-0.097625 -248.42232,33.02757 C -248.42232,66.15276 -217.04751,97.02757 -183.92232,97.02757 C -153.6332,97.02757 -128.58571,70.81131 -124.51607,41.68382 L -159.54732,36.65257 C -161.172,48.6137 -171.47739,57.62132 -183.92232,57.62132 C -197.49395,57.62132 -206.01607,46.0992 -206.01607,32.52757 C -206.01607,18.955936 -199.99395,12.43382 -186.42232,12.43382 C -179.6365,12.433819 -176.50103,10.198864 -172.04732,14.65257 L -176.8745,25.979749 C -178.93037,28.035619 -179.11822,29.285529 -178.55411,30.595278 C -178.04554,31.776057 -177.03338,33.12132 -174.34438,33.12132 L -130.39107,33.12132 C -126.54518,33.12132 -123.93208,30.466941 -123.93208,26.871189 L -124.00095,-17.206829 C -124.00095,-19.687584 -124.90346,-21.050058 -126.18242,-21.556444 C -127.49674,-22.076829 -129.21563,-21.679122 -131.28951,-19.605244 L -141.48482,-19.40993 C -152.34417,-30.269281 -167.85972,-32.47243 -184.42232,-32.47243 z"/><path style="fill:url(#linearGradient3596);fill-opacity:1;fill-rule:evenodd;stroke:none;stroke-width:1px;stroke-linecap:butt;stroke-linejoin:miter;stroke-opacity:1;filter:url(#filter3438)" id="path3588" d="M -161.5,34.5 C -162,37 -180,54 -180,54 L -132.5,80 L -112,38.5 L -161.5,34.5 z"/><path id="path3590" d="M -161.5,34.5 C -162,37 -181.27817,54.389087 -181.27817,54.389087 L -151.62742,97.591883 L -112,38.5 L -161.5,34.5 z" style="fill:url(#linearGradient3598);fill-opacity:1;fill-rule:evenodd;stroke:none;stroke-width:1px;stroke-linecap:butt;stroke-linejoin:miter;stroke-opacity:1;filter:url(#filter3438)"/><path style="fill:url(#linearGradient3600);fill-opacity:1;fill-rule:evenodd;stroke:none;stroke-width:1px;stroke-linecap:butt;stroke-linejoin:miter;stroke-opacity:1;filter:url(#filter3438)" id="path3592" d="M -161.5,34.5 C -162,37 -181.27817,54.389087 -181.27817,54.389087 L -151.62742,97.591883 L -112,38.5 L -161.5,34.5 z"/></g></mask><filter id="filter3630"><feGaussianBlur id="feGaussianBlur3632" stdDeviation=".899"/></filter><filter id="filter3378"><feGaussianBlur id="feGaussianBlur3380" stdDeviation=".565"/></filter></defs><metadata id="metadata2611"/><g id="layer1"><g id="g3835" mask="url(#mask3582)"><path id="rect3204" d="M 64.09375,3.90625 C 30.968558,3.9062499 4.0937499,30.781055 4.09375,63.90625 C 4.0937501,97.031442 30.96856,123.90625 64.09375,123.90625 C 94.382866,123.90625 119.43036,101.68999 123.5,72.5625 L 88.46875,67.53125 C 86.844066,79.492379 76.538676,88.5 64.09375,88.5 C 50.522122,88.499999 39.5,77.477881 39.5,63.90625 C 39.500001,50.334616 50.522119,39.3125 64.09375,39.3125 C 70.879568,39.312499 77.015044,42.077544 81.46875,46.53125 L 71.141571,56.858429 C 69.085701,58.914299 68.897846,60.164209 69.461963,61.473958 C 69.970531,62.654737 70.982695,64 73.671688,64 L 117.625,64 C 121.47089,64 124.08399,61.345621 124.08399,57.749869 L 124.01512,13.671851 C 124.01512,11.191096 123.11261,9.8286218 121.83365,9.3222363 C 120.51933,8.8018514 118.80044,9.1995576 116.72656,11.273436 L 106.53125,21.46875 C 95.671902,10.609399 80.656349,3.90625 64.09375,3.90625 z" style="opacity:1;fill:url(#linearGradient3516);fill-opacity:1;stroke:none;stroke-width:2;stroke-linecap:round;stroke-linejoin:round;stroke-miterlimit:4;stroke-dashoffset:1.08779998;stroke-opacity:1"/><path style="opacity:.79775281;fill:url(#radialGradient3757);fill-opacity:1;stroke:none;stroke-width:2;stroke-linecap:round;stroke-linejoin:round;stroke-miterlimit:4;stroke-dashoffset:1.08779998;stroke-opacity:1" id="path3749" d="M 64.09375,3.90625 C 30.968558,3.9062499 4.0937499,30.781055 4.09375,63.90625 C 4.0937501,97.031442 30.96856,123.90625 64.09375,123.90625 C 94.382866,123.90625 119.43036,101.68999 123.5,72.5625 L 88.46875,67.53125 C 86.844066,79.492379 76.538676,88.5 64.09375,88.5 C 50.522122,88.499999 39.5,77.477881 39.5,63.90625 C 39.500001,50.334616 50.522119,39.3125 64.09375,39.3125 C 70.879568,39.312499 77.015044,42.077544 81.46875,46.53125 L 71.141571,56.858429 C 69.085701,58.914299 68.897846,60.164209 69.461963,61.473958 C 69.970531,62.654737 70.982695,64 73.671688,64 L 117.625,64 C 121.47089,64 124.08399,61.345621 124.08399,57.749869 L 124.01512,13.671851 C 124.01512,11.191096 123.11261,9.8286218 121.83365,9.3222363 C 120.51933,8.8018514 118.80044,9.1995576 116.72656,11.273436 L 106.53125,21.46875 C 95.671902,10.609399 80.656349,3.90625 64.09375,3.90625 z"/><path id="path3656" d="M 64.09375,3.90625 C 30.968558,3.9062499 4.0937499,30.781055 4.09375,63.90625 C 4.0937501,97.031442 30.96856,123.90625 64.09375,123.90625 C 94.382866,123.90625 119.43036,101.68999 123.5,72.5625 L 88.46875,67.53125 C 86.844066,79.492379 76.538676,88.5 64.09375,88.5 C 50.522122,88.499999 39.5,77.477881 39.5,63.90625 C 39.500001,50.334616 50.522119,39.3125 64.09375,39.3125 C 70.879568,39.312499 77.015044,42.077544 81.46875,46.53125 L 71.141571,56.858429 C 69.085701,58.914299 68.897846,60.164209 69.461963,61.473958 C 69.970531,62.654737 70.982695,64 73.671688,64 L 117.625,64 C 121.47089,64 124.08399,61.345621 124.08399,57.749869 L 124.01512,13.671851 C 124.01512,11.191096 123.11261,9.8286218 121.83365,9.3222363 C 120.51933,8.8018514 118.80044,9.1995576 116.72656,11.273436 L 106.53125,21.46875 C 95.671902,10.609399 80.656349,3.90625 64.09375,3.90625 z" style="opacity:.68913858;fill:url(#radialGradient3658);fill-opacity:1;stroke:none;stroke-width:2;stroke-linecap:round;stroke-linejoin:round;stroke-miterlimit:4;stroke-dashoffset:1.08779998;stroke-opacity:1"/><path style="opacity:1;fill:url(#radialGradient3654);fill-opacity:1;stroke:none;stroke-width:2;stroke-linecap:round;stroke-linejoin:round;stroke-miterlimit:4;stroke-dashoffset:1.08779998;stroke-opacity:1" id="path3643" d="M 64.09375,3.90625 C 30.968558,3.9062499 4.0937499,30.781055 4.09375,63.90625 C 4.0937501,97.031442 30.96856,123.90625 64.09375,123.90625 C 94.382866,123.90625 119.43036,101.68999 123.5,72.5625 L 88.46875,67.53125 C 86.844066,79.492379 76.538676,88.5 64.09375,88.5 C 50.522122,88.499999 39.5,77.477881 39.5,63.90625 C 39.500001,50.334616 50.522119,39.3125 64.09375,39.3125 C 70.879568,39.312499 77.015044,42.077544 81.46875,46.53125 L 71.141571,56.858429 C 69.085701,58.914299 68.897846,60.164209 69.461963,61.473958 C 69.970531,62.654737 70.982695,64 73.671688,64 L 117.625,64 C 121.47089,64 124.08399,61.345621 124.08399,57.749869 L 124.01512,13.671851 C 124.01512,11.191096 123.11261,9.8286218 121.83365,9.3222363 C 120.51933,8.8018514 118.80044,9.1995576 116.72656,11.273436 L 106.53125,21.46875 C 95.671902,10.609399 80.656349,3.90625 64.09375,3.90625 z"/><path id="path3742" d="M 64.09375,3.90625 C 30.968558,3.9062499 4.0937499,30.781055 4.09375,63.90625 C 4.0937501,97.031442 30.96856,123.90625 64.09375,123.90625 C 94.382866,123.90625 119.43036,101.68999 123.5,72.5625 L 88.46875,67.53125 C 86.844066,79.492379 76.538676,88.5 64.09375,88.5 C 50.522122,88.499999 39.5,77.477881 39.5,63.90625 C 39.500001,50.334616 50.522119,39.3125 64.09375,39.3125 C 70.879568,39.312499 77.015044,42.077544 81.46875,46.53125 L 71.141571,56.858429 C 69.085701,58.914299 68.897846,60.164209 69.461963,61.473958 C 69.970531,62.654737 70.982695,64 73.671688,64 L 117.625,64 C 121.47089,64 124.08399,61.345621 124.08399,57.749869 L 124.01512,13.671851 C 124.01512,11.191096 123.11261,9.8286218 121.83365,9.3222363 C 120.51933,8.8018514 118.80044,9.1995576 116.72656,11.273436 L 106.53125,21.46875 C 95.671902,10.609399 80.656349,3.90625 64.09375,3.90625 z" style="opacity:.79775281;fill:url(#radialGradient3744);fill-opacity:1;stroke:none;stroke-width:2;stroke-linecap:round;stroke-linejoin:round;stroke-miterlimit:4;stroke-dashoffset:1.08779998;stroke-opacity:1"/><path style="opacity:.74531835;fill:url(#radialGradient3767);fill-opacity:1;stroke:none;stroke-width:2;stroke-linecap:round;stroke-linejoin:round;stroke-miterlimit:4;stroke-dashoffset:1.08779998;stroke-opacity:1;filter:url(#filter3630)" id="path3759" d="M 64.09375,4.20625 C 30.968558,4.2062499 4.0937499,30.781055 4.09375,63.90625 C 4.0937501,97.031442 30.96856,123.90625 64.09375,123.90625 C 94.382866,123.90625 119.43036,101.68999 123.5,72.5625 L 88.46875,67.53125 C 86.844066,79.492379 76.538676,88.5 64.09375,88.5 C 50.522122,88.499999 39.5,77.477881 39.5,63.90625 C 39.500001,50.334616 50.522119,39.3125 64.09375,39.3125 C 70.879568,39.312499 77.015044,42.077544 81.46875,46.53125 L 71.141571,56.858429 C 69.085701,58.914299 68.897846,60.164209 69.461963,61.473958 C 69.970531,62.654737 70.982695,64 73.671688,64 L 117.625,64 C 121.47089,64 124.08399,61.345621 124.08399,57.749869 L 124.01512,13.671851 C 124.01512,11.191096 123.11261,9.8286218 121.83365,9.3222363 C 120.51933,8.8018514 118.80044,9.1995576 116.72656,11.273436 L 106.53125,21.46875 C 95.671902,10.609399 80.656349,4.20625 64.09375,4.20625 z"/><path id="path3660" d="M 117.6875,10.75 L 118.625,15.125 L 119.875,16 L 123.875,13.375 C 124.12188,11.651249 123.52383,10.027571 121.9375,9.3749999 C 120.35116,8.7224285 118.77622,9.5017032 117.6875,10.75 z" style="fill:url(#linearGradient3676);fill-opacity:1;fill-rule:evenodd;stroke:none;stroke-width:1px;stroke-linecap:butt;stroke-linejoin:miter;stroke-opacity:1;filter:url(#filter3738);opacity:.82022472"/><path style="opacity:.82022472;fill:url(#linearGradient3771);fill-opacity:1;fill-rule:evenodd;stroke:none;stroke-width:1px;stroke-linecap:butt;stroke-linejoin:miter;stroke-opacity:1;filter:url(#filter3738)" id="path3769" d="M 117.6875,10.75 L 119.875,13.875 L 120.375,13.75 L 123.875,13.375 C 124.12188,11.651249 123.52383,10.027571 121.9375,9.3749999 C 120.35116,8.7224285 118.77622,9.5017032 117.6875,10.75 z" transform="matrix(0,1,1,0,60.363582,-60.363586)"/><path id="path3494" d="M 64.09375 7.90625 C 33.132052 7.9062499 8.0937499 32.944549 8.09375 63.90625 C 8.0937501 94.867948 33.132054 119.90625 64.09375 119.90625 C 91.026646 119.90625 113.21548 101.0995 118.625 75.90625 L 91.5 72.03125 C 88.061436 83.928551 77.059621 92.5 64.09375 92.5 C 48.356404 92.499999 35.5 79.643599 35.5 63.90625 C 35.500001 48.168899 48.356402 35.3125 64.09375 35.3125 C 71.966166 35.312499 79.145304 38.520304 84.3125 43.6875 C 85.071964 44.438909 85.499997 45.462886 85.5 46.53125 C 85.5 47.599614 85.071964 48.623591 84.3125 49.375 L 73.6875 60 L 117.625 60 C 119.63039 60 120.09375 59.407836 120.09375 57.75 L 120 13.65625 L 109.375 24.3125 C 108.62359 25.071964 107.59961 25.5 106.53125 25.5 C 105.46289 25.5 104.43891 25.071964 103.6875 24.3125 C 93.549835 14.174833 79.577106 7.90625 64.09375 7.90625 z" style="opacity:1;fill:url(#radialGradient3524);fill-opacity:1;stroke:none;stroke-width:4;stroke-linecap:round;stroke-linejoin:round;stroke-miterlimit:4;stroke-dashoffset:1.08779998;stroke-opacity:1;stroke-dasharray:none"/><path style="opacity:1;fill:url(#radialGradient3535);fill-opacity:1;stroke:none;stroke-width:4;stroke-linecap:round;stroke-linejoin:round;stroke-miterlimit:4;stroke-dashoffset:1.08779998;stroke-opacity:1;stroke-dasharray:none" id="path3526" d="M 64.09375 7.90625 C 33.132052 7.9062499 8.0937499 32.944549 8.09375 63.90625 C 8.0937501 94.867948 33.132054 119.90625 64.09375 119.90625 C 91.026646 119.90625 113.21548 101.0995 118.625 75.90625 L 91.5 72.03125 C 88.061436 83.928551 77.059621 92.5 64.09375 92.5 C 48.356404 92.499999 35.5 79.643599 35.5 63.90625 C 35.500001 48.168899 48.356402 35.3125 64.09375 35.3125 C 71.966166 35.312499 79.145304 38.520304 84.3125 43.6875 C 85.071964 44.438909 85.499997 45.462886 85.5 46.53125 C 85.5 47.599614 85.071964 48.623591 84.3125 49.375 L 73.6875 60 L 117.625 60 C 119.63039 60 120.09375 59.407836 120.09375 57.75 L 120 13.65625 L 109.375 24.3125 C 108.62359 25.071964 107.59961 25.5 106.53125 25.5 C 105.46289 25.5 104.43891 25.071964 103.6875 24.3125 C 93.549835 14.174833 79.577106 7.90625 64.09375 7.90625 z"/><path id="path3537" d="M 64.09375,7.90625 C 33.132052,7.9062499 8.0937499,32.944549 8.09375,63.90625 C 8.09375,64.474122 8.1082724,65.029981 8.125,65.59375 C 14.11447,66.271402 20.266218,66.74388 26.53125,67 C 26.260548,56.540958 30.202859,46.025084 38.34375,38.21875 C 53.683067,23.509813 78.072313,24.004431 92.78125,39.34375 C 95.545099,42.226046 97.537852,45.032117 99.34375,48.59375 L 78.84375,59 L 98,59 C 105.9282,56.973373 113.18621,55.563033 120.09375,52.8125 L 120,13.65625 L 109.375,24.3125 C 108.62359,25.071964 107.59961,25.5 106.53125,25.5 C 105.46289,25.5 104.43891,25.071964 103.6875,24.3125 C 93.549835,14.174833 79.577106,7.90625 64.09375,7.90625 z" style="opacity:.83333333;fill:url(#linearGradient3548);fill-opacity:1;stroke:none;stroke-width:8;stroke-linecap:round;stroke-linejoin:round;stroke-miterlimit:4;stroke-dasharray:none;stroke-dashoffset:1.08779998;stroke-opacity:1"/><path id="path3553" d="M 64.099866,7.9087646 C 33.138176,7.9087644 8.0998661,32.947063 8.0998661,63.908764 C 8.0998761,64.087476 8.0973761,64.263059 8.0998661,64.440014 C 8.3531061,33.696509 33.295846,8.9087645 64.099866,8.9087646 C 79.583236,8.9087645 93.555946,15.177347 103.69361,25.315014 C 104.44503,26.074479 105.469,26.502514 106.53736,26.502514 C 107.60573,26.502515 108.6297,26.074478 109.38111,25.315014 L 119.50611,15.158764 L 119.99986,52.708764 C 113.09232,55.459294 105.43431,56.569624 97.506116,58.596264 L 78.849866,59.002514 L 98.006116,59.002514 C 105.93431,56.975884 113.19232,55.565544 120.09986,52.815014 L 120.00611,14.658764 L 120.00611,13.658764 L 119.50611,14.158764 L 109.38111,24.315014 C 108.62971,25.074479 107.60572,25.502514 106.53736,25.502514 C 105.46901,25.502515 104.44502,25.074478 103.69361,24.315014 C 103.68314,24.304548 103.67283,24.294222 103.66236,24.283764 C 103.60999,24.231473 103.55869,24.179598 103.50611,24.127514 C 102.93231,23.559643 102.35524,23.012364 101.75611,22.471264 C 101.67459,22.397145 101.58807,22.326157 101.50611,22.252514 C 91.590066,13.342335 78.496526,7.9087646 64.099866,7.9087646 z M 63.443616,27.127514 C 54.205446,27.378034 45.040176,30.920194 37.849866,37.815014 C 30.217786,45.133448 26.722316,55.187931 26.537366,65.033764 C 26.777246,55.231884 30.717786,45.539698 38.349866,38.221264 C 51.665996,25.452364 71.803196,24.123207 86.506116,34.033764 C 79.627056,29.22869 71.518656,26.908534 63.443616,27.127514 z" style="opacity:1;fill:url(#linearGradient3581);fill-opacity:1;stroke:none;stroke-width:8;stroke-linecap:round;stroke-linejoin:round;stroke-miterlimit:4;stroke-dasharray:none;stroke-dashoffset:1.08779998;stroke-opacity:1"/><path id="path3603" d="M 63.59375,7.90625 C 32.63205,7.9062499 7.59375,32.944549 7.59375,63.90625 C 7.59375,94.867948 32.63205,119.90625 63.59375,119.90625 C 90.52665,119.90625 112.71548,101.0995 118.125,75.90625 L 91,72.03125 C 87.56144,83.928551 76.55962,92.5 63.59375,92.5 C 47.8564,92.499999 35,79.643599 35,63.90625 C 35,48.168899 47.8564,35.3125 63.59375,35.3125 C 71.46617,35.312499 78.6453,38.520304 83.8125,43.6875 C 84.57196,44.438909 85,45.462886 85,46.53125 C 85,47.599614 84.57196,48.623591 83.8125,49.375 L 73.1875,60 L 117.125,60 C 119.13039,60 119.59375,59.407836 119.59375,57.75 L 119.5,13.65625 L 108.875,24.3125 C 108.12359,25.071964 107.09961,25.5 106.03125,25.5 C 104.96289,25.5 103.93891,25.071964 103.1875,24.3125 C 93.04984,14.174833 79.07711,7.90625 63.59375,7.90625 z" style="opacity:1;fill:none;fill-opacity:1;stroke:url(#linearGradient3613);stroke-width:1;stroke-linecap:round;stroke-linejoin:round;stroke-miterlimit:4;stroke-dasharray:none;stroke-dashoffset:1.08779998;stroke-opacity:1;filter:url(#filter3378)"/></g></g></svg>